<svg width="1347" height="1084" viewBox="0 0 1347 1084" fill="none" xmlns="http://www.w3.org/2000/svg">
<g opacity="0.6">
<path d="M1332.79 203.514C1403.25 420.512 1160.33 943.993 936.755 1056.97C713.177 1169.96 453.722 875.153 259.616 745.828C65.5095 616.503 23.9319 574.31 5.04599 436.215C-13.8399 298.121 45.3134 170.645 168.963 82.9726C292.613 -4.69976 356.102 -9.72498 598.566 15.3879C841.03 40.5007 1262.34 -13.4829 1332.79 203.514ZM1332.79 203.514C1403.25 420.512 1160.33 943.993 936.755 1056.97" stroke="url(#paint0_linear_155_1114)" stroke-opacity="0.5" stroke-width="2.5163"/>
<path d="M1302.82 218.912C1370.07 426.045 1138.2 925.732 924.784 1033.58C711.368 1141.42 463.707 860.021 278.424 736.574C93.1404 613.128 53.4526 572.853 35.4252 441.035C17.3978 309.218 73.8623 187.536 191.892 103.849C309.921 20.1618 370.524 15.365 601.967 39.3363C833.41 63.3077 1235.57 11.7778 1302.82 218.912ZM1302.82 218.912C1370.07 426.045 1138.2 925.732 924.784 1033.58" stroke="url(#paint1_linear_155_1114)" stroke-opacity="0.5" stroke-width="2.5163"/>
<path d="M1272.85 234.308C1336.9 431.579 1116.07 907.471 912.814 1010.18C709.561 1112.89 473.692 844.889 297.232 727.32C120.772 609.752 82.9744 571.395 65.8054 445.855C48.6364 320.314 102.412 204.427 214.821 124.725C327.23 45.0229 384.947 40.4545 605.369 63.2843C825.791 86.1142 1208.8 37.0381 1272.85 234.308ZM1272.85 234.308C1336.9 431.579 1116.07 907.471 912.814 1010.18" stroke="url(#paint2_linear_155_1114)" stroke-opacity="0.5" stroke-width="2.5163"/>
<path d="M1242.88 249.706C1303.72 437.113 1093.93 889.211 900.844 986.786C707.753 1084.36 483.678 829.757 316.041 718.068C148.404 606.378 112.496 569.939 96.1856 450.675C79.8751 331.412 130.962 221.319 237.751 145.602C344.539 69.8849 399.37 65.5449 608.771 87.2333C818.172 108.922 1182.03 62.2994 1242.88 249.706ZM1242.88 249.706C1303.72 437.113 1093.93 889.211 900.844 986.786" stroke="url(#paint3_linear_155_1114)" stroke-opacity="0.5" stroke-width="2.5163"/>
<path d="M1212.9 265.103C1270.55 442.646 1071.8 870.949 888.872 963.389C705.945 1055.83 493.663 814.625 334.849 708.814C176.035 603.003 142.017 568.481 126.565 455.495C111.113 342.508 159.511 238.21 260.679 166.478C361.847 94.746 413.792 90.6344 612.172 111.181C810.552 131.728 1155.26 87.5597 1212.9 265.103ZM1212.9 265.103C1270.55 442.646 1071.8 870.949 888.872 963.389" stroke="url(#paint4_linear_155_1114)" stroke-opacity="0.5" stroke-width="2.5163"/>
<path d="M1182.93 280.501C1237.37 448.18 1049.67 852.689 876.901 939.993C704.136 1027.3 503.648 799.494 353.657 699.561C203.666 599.628 171.538 567.025 156.944 460.315C142.35 353.605 188.06 255.102 283.607 187.355C379.155 119.608 428.214 115.725 615.573 135.13C802.932 154.536 1128.49 112.821 1182.93 280.501ZM1182.93 280.501C1237.37 448.18 1049.67 852.689 876.901 939.993" stroke="url(#paint5_linear_155_1114)" stroke-opacity="0.5" stroke-width="2.5163"/>
<path d="M1152.96 295.898C1204.2 453.714 1027.53 834.428 864.93 916.597C702.327 998.765 513.633 784.362 372.465 690.308C231.297 596.253 201.058 565.568 187.323 465.135C173.588 364.703 216.609 271.993 306.536 208.231C396.463 144.47 442.637 140.815 618.974 159.079C795.312 177.343 1101.72 138.082 1152.96 295.898ZM1152.96 295.898C1204.2 453.714 1027.53 834.428 864.93 916.597" stroke="url(#paint6_linear_155_1114)" stroke-opacity="0.5" stroke-width="2.5163"/>
<path d="M1122.98 311.295C1171.02 459.248 1005.4 816.167 852.959 893.2C700.519 970.233 523.618 769.23 391.273 681.054C258.928 592.878 230.579 564.111 217.702 469.955C204.826 375.8 245.157 288.884 329.464 229.108C413.771 169.331 457.059 165.905 622.375 183.027C787.692 200.15 1074.95 163.343 1122.98 311.295ZM1122.98 311.295C1171.02 459.248 1005.4 816.167 852.959 893.2" stroke="url(#paint7_linear_155_1114)" stroke-opacity="0.5" stroke-width="2.5163"/>
<path d="M1093.01 326.692C1137.85 464.782 983.265 797.906 840.988 869.804C698.71 941.701 533.603 754.099 410.08 671.801C286.558 589.503 260.1 562.653 248.082 474.775C236.063 386.896 273.706 305.776 352.393 249.984C431.079 194.193 471.481 190.995 625.776 206.976C780.072 222.957 1048.18 188.603 1093.01 326.692ZM1093.01 326.692C1137.85 464.782 983.265 797.906 840.988 869.804" stroke="url(#paint8_linear_155_1114)" stroke-opacity="0.5" stroke-width="2.5163"/>
<path d="M1063.04 342.09C1104.67 470.316 961.132 779.645 829.017 846.407C696.903 913.169 543.588 738.967 428.889 662.548C314.19 586.128 289.622 561.196 278.462 479.595C267.302 397.993 302.256 322.667 375.322 270.861C448.388 219.054 485.904 216.085 629.178 230.924C772.453 245.764 1021.41 213.864 1063.04 342.09ZM1063.04 342.09C1104.67 470.316 961.132 779.645 829.017 846.407" stroke="url(#paint9_linear_155_1114)" stroke-opacity="0.5" stroke-width="2.5163"/>
<path d="M1033.07 357.488C1071.5 475.85 938.998 761.385 817.046 823.012C695.094 884.638 553.573 723.836 447.697 653.295C341.821 582.754 319.142 559.74 308.841 484.415C298.54 409.091 330.805 339.559 398.251 291.738C465.696 243.916 500.326 241.175 632.579 254.873C764.833 268.571 994.636 239.125 1033.07 357.488ZM1033.07 357.488C1071.5 475.85 938.998 761.385 817.046 823.012" stroke="url(#paint10_linear_155_1114)" stroke-opacity="0.5" stroke-width="2.5163"/>
<path d="M1003.09 372.884C1038.32 481.383 916.864 743.124 805.075 799.615C693.286 856.106 563.558 708.703 466.505 644.041C369.452 579.379 348.663 558.282 339.22 489.235C329.777 420.187 359.354 356.45 421.179 312.614C483.004 268.777 514.748 266.265 635.98 278.821C757.213 291.378 967.865 264.386 1003.09 372.884ZM1003.09 372.884C1038.32 481.383 916.864 743.124 805.075 799.615" stroke="url(#paint11_linear_155_1114)" stroke-opacity="0.5" stroke-width="2.5163"/>
<path d="M973.12 388.282C1005.15 486.917 894.73 724.863 793.104 776.218C691.477 827.574 573.543 693.572 485.313 634.788C397.083 576.004 378.184 556.825 369.599 494.055C361.015 431.284 387.903 373.341 444.107 333.49C500.312 293.639 529.17 291.355 639.381 302.77C749.592 314.185 941.095 289.646 973.12 388.282ZM973.12 388.282C1005.15 486.917 894.73 724.863 793.104 776.218" stroke="url(#paint12_linear_155_1114)" stroke-opacity="0.5" stroke-width="2.5163"/>
<path d="M943.147 403.679C971.97 492.451 872.596 706.602 781.132 752.822C689.669 799.042 583.528 678.44 504.121 625.535C424.714 572.629 407.705 555.369 399.979 498.875C392.253 442.382 416.452 390.233 467.036 354.367C517.62 318.501 543.592 316.445 642.782 326.719C741.972 336.992 914.324 314.908 943.147 403.679ZM943.147 403.679C971.97 492.451 872.596 706.602 781.132 752.822" stroke="url(#paint13_linear_155_1114)" stroke-opacity="0.5" stroke-width="2.5163"/>
<path d="M913.176 419.076C938.796 497.984 850.464 688.341 769.162 729.426C687.861 770.51 593.514 663.308 522.93 616.281C452.346 569.254 437.226 553.911 430.359 503.695C423.491 453.478 445.002 407.124 489.965 375.243C534.929 343.362 558.016 341.535 646.184 350.667C734.353 359.799 887.555 340.168 913.176 419.076ZM913.176 419.076C938.796 497.984 850.464 688.341 769.162 729.426" stroke="url(#paint14_linear_155_1114)" stroke-opacity="0.5" stroke-width="2.5163"/>
<path d="M883.203 434.474C905.621 503.519 828.33 670.081 757.191 706.03C686.052 741.978 603.499 648.177 541.738 607.028C479.977 565.879 466.747 552.454 460.738 508.515C454.729 464.576 473.55 424.016 512.894 396.12C552.237 368.224 572.438 366.625 649.585 374.616C726.733 382.606 860.785 365.429 883.203 434.474ZM883.203 434.474C905.621 503.519 828.33 670.081 757.191 706.03" stroke="url(#paint15_linear_155_1114)" stroke-opacity="0.5" stroke-width="2.5163"/>
<path d="M853.23 449.871C872.445 509.052 806.196 651.819 745.22 682.633C684.244 713.446 613.483 633.045 560.545 597.774C507.607 562.504 496.268 550.997 491.117 513.335C485.967 475.672 502.099 440.906 535.822 416.996C569.545 393.085 586.86 391.715 652.986 398.564C719.113 405.412 834.015 390.69 853.23 449.871ZM853.23 449.871C872.445 509.052 806.196 651.819 745.22 682.633" stroke="url(#paint16_linear_155_1114)" stroke-opacity="0.5" stroke-width="2.5163"/>
<path d="M823.257 465.269C839.27 514.587 784.062 633.56 733.249 659.237C682.435 684.915 623.468 617.914 579.353 588.522C535.238 559.13 525.789 549.541 521.497 518.156C517.204 486.77 530.648 457.799 558.75 437.873C586.853 417.948 601.282 416.806 656.387 422.513C711.493 428.22 807.244 415.951 823.257 465.269ZM823.257 465.269C839.27 514.587 784.062 633.56 733.249 659.237" stroke="url(#paint17_linear_155_1114)" stroke-opacity="0.5" stroke-width="2.5163"/>
<path d="M793.285 480.665C806.095 520.119 761.929 615.298 721.278 635.84C680.628 656.382 633.454 602.781 598.162 579.268C562.87 555.754 555.31 548.083 551.877 522.975C548.443 497.866 559.198 474.689 581.68 458.749C604.162 442.808 615.705 441.895 659.789 446.46C703.874 451.026 780.475 441.211 793.285 480.665ZM793.285 480.665C806.095 520.119 761.929 615.298 721.278 635.84" stroke="url(#paint18_linear_155_1114)" stroke-opacity="0.5" stroke-width="2.5163"/>
<path d="M763.312 496.063C772.92 525.653 739.795 597.037 709.307 612.444C678.819 627.85 643.439 587.65 616.97 570.014C590.501 552.379 584.831 546.626 582.256 527.795C579.681 508.963 587.747 491.58 604.608 479.625C621.47 467.67 630.127 466.984 663.191 470.409C696.254 473.833 753.705 466.472 763.312 496.063ZM763.312 496.063C772.92 525.653 739.795 597.037 709.307 612.444" stroke="url(#paint19_linear_155_1114)" stroke-opacity="0.5" stroke-width="2.5163"/>
<path d="M733.339 511.46C739.744 531.187 717.661 578.777 697.336 589.048C677.011 599.319 653.424 572.518 635.778 560.762C618.132 549.005 614.352 545.169 612.635 532.615C610.918 520.061 616.296 508.472 627.537 500.502C638.778 492.532 644.549 492.075 666.591 494.358C688.634 496.641 726.934 491.733 733.339 511.46ZM733.339 511.46C739.744 531.187 717.661 578.777 697.336 589.048" stroke="url(#paint20_linear_155_1114)" stroke-opacity="0.5" stroke-width="2.5163"/>
<path d="M703.366 526.858C706.569 536.722 695.527 560.516 685.365 565.652C675.202 570.787 663.409 557.387 654.586 551.509C645.763 545.63 643.873 543.712 643.014 537.435C642.156 531.158 644.845 525.364 650.465 521.379C656.086 517.394 658.971 517.165 669.992 518.307C681.014 519.448 700.164 516.995 703.366 526.858ZM703.366 526.858C706.569 536.722 695.527 560.516 685.365 565.652" stroke="url(#paint21_linear_155_1114)" stroke-opacity="0.5" stroke-width="2.5163"/>
</g>
<defs>
<linearGradient id="paint0_linear_155_1114" x1="673.394" y1="2.25537" x2="673.394" y2="1082.26" gradientUnits="userSpaceOnUse">
<stop offset="0.45" stop-color="#64D9FF"/>
<stop offset="1" stop-color="#DE2BAE"/>
</linearGradient>
<linearGradient id="paint1_linear_155_1114" x1="673.393" y1="26.8008" x2="673.393" y2="1057.71" gradientUnits="userSpaceOnUse">
<stop offset="0.45" stop-color="#64D9FF"/>
<stop offset="1" stop-color="#DE2BAE"/>
</linearGradient>
<linearGradient id="paint2_linear_155_1114" x1="673.394" y1="51.3457" x2="673.394" y2="1033.16" gradientUnits="userSpaceOnUse">
<stop offset="0.45" stop-color="#64D9FF"/>
<stop offset="1" stop-color="#DE2BAE"/>
</linearGradient>
<linearGradient id="paint3_linear_155_1114" x1="673.395" y1="75.8916" x2="673.395" y2="1008.62" gradientUnits="userSpaceOnUse">
<stop offset="0.45" stop-color="#64D9FF"/>
<stop offset="1" stop-color="#DE2BAE"/>
</linearGradient>
<linearGradient id="paint4_linear_155_1114" x1="673.395" y1="100.437" x2="673.395" y2="984.073" gradientUnits="userSpaceOnUse">
<stop offset="0.45" stop-color="#64D9FF"/>
<stop offset="1" stop-color="#DE2BAE"/>
</linearGradient>
<linearGradient id="paint5_linear_155_1114" x1="673.394" y1="124.982" x2="673.394" y2="959.528" gradientUnits="userSpaceOnUse">
<stop offset="0.45" stop-color="#64D9FF"/>
<stop offset="1" stop-color="#DE2BAE"/>
</linearGradient>
<linearGradient id="paint6_linear_155_1114" x1="673.394" y1="149.528" x2="673.394" y2="934.982" gradientUnits="userSpaceOnUse">
<stop offset="0.45" stop-color="#64D9FF"/>
<stop offset="1" stop-color="#DE2BAE"/>
</linearGradient>
<linearGradient id="paint7_linear_155_1114" x1="673.394" y1="174.073" x2="673.394" y2="910.437" gradientUnits="userSpaceOnUse">
<stop offset="0.45" stop-color="#64D9FF"/>
<stop offset="1" stop-color="#DE2BAE"/>
</linearGradient>
<linearGradient id="paint8_linear_155_1114" x1="673.394" y1="198.619" x2="673.394" y2="885.891" gradientUnits="userSpaceOnUse">
<stop offset="0.45" stop-color="#64D9FF"/>
<stop offset="1" stop-color="#DE2BAE"/>
</linearGradient>
<linearGradient id="paint9_linear_155_1114" x1="673.394" y1="223.164" x2="673.394" y2="861.346" gradientUnits="userSpaceOnUse">
<stop offset="0.45" stop-color="#64D9FF"/>
<stop offset="1" stop-color="#DE2BAE"/>
</linearGradient>
<linearGradient id="paint10_linear_155_1114" x1="673.394" y1="247.71" x2="673.394" y2="836.801" gradientUnits="userSpaceOnUse">
<stop offset="0.45" stop-color="#64D9FF"/>
<stop offset="1" stop-color="#DE2BAE"/>
</linearGradient>
<linearGradient id="paint11_linear_155_1114" x1="673.394" y1="272.255" x2="673.394" y2="812.255" gradientUnits="userSpaceOnUse">
<stop offset="0.45" stop-color="#64D9FF"/>
<stop offset="1" stop-color="#DE2BAE"/>
</linearGradient>
<linearGradient id="paint12_linear_155_1114" x1="673.394" y1="296.8" x2="673.394" y2="787.709" gradientUnits="userSpaceOnUse">
<stop offset="0.45" stop-color="#64D9FF"/>
<stop offset="1" stop-color="#DE2BAE"/>
</linearGradient>
<linearGradient id="paint13_linear_155_1114" x1="673.394" y1="321.346" x2="673.394" y2="763.164" gradientUnits="userSpaceOnUse">
<stop offset="0.45" stop-color="#64D9FF"/>
<stop offset="1" stop-color="#DE2BAE"/>
</linearGradient>
<linearGradient id="paint14_linear_155_1114" x1="673.394" y1="345.891" x2="673.394" y2="738.618" gradientUnits="userSpaceOnUse">
<stop offset="0.45" stop-color="#64D9FF"/>
<stop offset="1" stop-color="#DE2BAE"/>
</linearGradient>
<linearGradient id="paint15_linear_155_1114" x1="673.394" y1="370.437" x2="673.394" y2="714.073" gradientUnits="userSpaceOnUse">
<stop offset="0.45" stop-color="#64D9FF"/>
<stop offset="1" stop-color="#DE2BAE"/>
</linearGradient>
<linearGradient id="paint16_linear_155_1114" x1="673.394" y1="394.982" x2="673.394" y2="689.527" gradientUnits="userSpaceOnUse">
<stop offset="0.45" stop-color="#64D9FF"/>
<stop offset="1" stop-color="#DE2BAE"/>
</linearGradient>
<linearGradient id="paint17_linear_155_1114" x1="673.394" y1="419.528" x2="673.394" y2="664.983" gradientUnits="userSpaceOnUse">
<stop offset="0.45" stop-color="#64D9FF"/>
<stop offset="1" stop-color="#DE2BAE"/>
</linearGradient>
<linearGradient id="paint18_linear_155_1114" x1="673.394" y1="444.073" x2="673.394" y2="640.436" gradientUnits="userSpaceOnUse">
<stop offset="0.45" stop-color="#64D9FF"/>
<stop offset="1" stop-color="#DE2BAE"/>
</linearGradient>
<linearGradient id="paint19_linear_155_1114" x1="673.394" y1="468.618" x2="673.394" y2="615.891" gradientUnits="userSpaceOnUse">
<stop offset="0.45" stop-color="#64D9FF"/>
<stop offset="1" stop-color="#DE2BAE"/>
</linearGradient>
<linearGradient id="paint20_linear_155_1114" x1="673.394" y1="493.164" x2="673.394" y2="591.346" gradientUnits="userSpaceOnUse">
<stop offset="0.45" stop-color="#64D9FF"/>
<stop offset="1" stop-color="#DE2BAE"/>
</linearGradient>
<linearGradient id="paint21_linear_155_1114" x1="673.394" y1="517.71" x2="673.394" y2="566.801" gradientUnits="userSpaceOnUse">
<stop offset="0.45" stop-color="#64D9FF"/>
<stop offset="1" stop-color="#DE2BAE"/>
</linearGradient>
</defs>
</svg>
